<?xml version="1.0" encoding="UTF-8"?>
<svg xmlns="http://www.w3.org/2000/svg" xmlns:xlink="http://www.w3.org/1999/xlink" width="0" height="0">
  <defs>
    <symbol id="alert-triangle" viewBox="0 0 24 24">
      <path d="m21.73 18-8-14a2 2 0 0 0-3.48 0l-8 14A2 2 0 0 0 4 21h16a2 2 0 0 0 1.73-3Z" />
      <path d="M12 9v4" />
      <path d="M12 17h.01" />
    </symbol>
    <symbol id="book" viewBox="0 0 24 24">
      <path d="M4 19.5v-15A2.5 2.5 0 0 1 6.5 2H20v20H6.5a2.5 2.5 0 0 1 0-5H20" />
    </symbol>
    <symbol id="bookmark" viewBox="0 0 24 24">
      <path d="m19 21-7-4-7 4V5a2 2 0 0 1 2-2h10a2 2 0 0 1 2 2v16z" />
    </symbol>
    <symbol id="bookmarks" viewBox="0 0 24 24">
      <path d="m21 22-7-4-7 4V8.75a2 2 0 0 1 2-2h10a2 2 0 0 1 2 2v0z" />
      <path d="M3 18V6q0-3 3-3h10" />
    </symbol>
    <symbol id="books" viewBox="0 0 24 24">
      <path d="M2 16V4a2 2 0 0 1 2-2h11" />
      <path d="M5 14H4a2 2 0 1 0 0 4h1" />
      <path d="M22 18H11a2 2 0 1 0 0 4h11V6H11a2 2 0 0 0-2 2v12" />
    </symbol>
    <symbol id="calendar" viewBox="0 0 24 24">
      <rect width="18" height="18" x="3" y="4" rx="2" ry="2" />
      <line x1="16" x2="16" y1="2" y2="6" />
      <line x1="8" x2="8" y1="2" y2="6" />
      <line x1="3" x2="21" y1="10" y2="10" />
    </symbol>
    <symbol id="check" viewBox="0 0 24 24">
      <polyline points="20 6 9 17 4 12" />
    </symbol>
    <symbol id="chevron-down" viewBox="0 0 24 24">
      <polyline points="6 9 12 15 18 9" />
    </symbol>
    <symbol id="chevron-left" viewBox="0 0 24 24">
      <path d="m15 18-6-6 6-6" />
    </symbol>
    <symbol id="chevron-right" viewBox="0 0 24 24">
      <polyline points="9 18 15 12 9 6" />
    </symbol>
    <symbol id="chevron-up" viewBox="0 0 24 24">
      <path d="m18 15-6-6-6 6" />
    </symbol>
    <symbol id="chevrons-left" viewBox="0 0 24 24">
      <path d="m11 17-5-5 5-5" />
      <path d="m18 17-5-5 5-5" />
    </symbol>
    <symbol id="chevrons-right" viewBox="0 0 24 24">
      <path d="m6 17 5-5-5-5" />
      <path d="m13 17 5-5-5-5" />
    </symbol>
    <symbol id="chevrons-up-down" viewBox="0 0 24 24">
      <path d="m7 15 5 5 5-5" />
      <path d="m7 9 5-5 5 5" />
    </symbol>
    <symbol id="download" viewBox="0 0 24 24">
      <path d="M21 15v4a2 2 0 0 1-2 2H5a2 2 0 0 1-2-2v-4" />
      <polyline points="7 10 12 15 17 10" />
      <line x1="12" x2="12" y1="15" y2="3" />
    </symbol>
    <symbol id="external-link" viewBox="0 0 24 24">
      <path d="M18 13v6a2 2 0 0 1-2 2H5a2 2 0 0 1-2-2V8a2 2 0 0 1 2-2h6" />
      <polyline points="15 3 21 3 21 9" />
      <line x1="10" x2="21" y1="14" y2="3" />
    </symbol>
    <symbol id="heart" viewBox="0 0 24 24">
      <path d="M19 14c1.49-1.46 3-3.21 3-5.5A5.5 5.5 0 0 0 16.5 3c-1.76 0-3 .5-4.5 2-1.5-1.5-2.74-2-4.5-2A5.5 5.5 0 0 0 2 8.5c0 2.3 1.5 4.05 3 5.5l7 7Z" />
    </symbol>
    <symbol id="home" viewBox="0 0 24 24">
      <path d="m3 9 9-7 9 7v11a2 2 0 0 1-2 2H5a2 2 0 0 1-2-2z" />
      <polyline points="9 22 9 12 15 12 15 22" />
    </symbol>
    <symbol id="info" viewBox="0 0 24 24">
      <circle cx="12" cy="12" r="10" />
      <path d="M12 16v-4" />
      <path d="M12 8h.01" />
    </symbol>
    <symbol id="laptop" viewBox="0 0 24 24">
      <path d="M20 16V7a2 2 0 0 0-2-2H6a2 2 0 0 0-2 2v9m16 0H4m16 0 1.28 2.55a1 1 0 0 1-.9 1.45H3.62a1 1 0 0 1-.9-1.45L4 16" />
    </symbol>
    <symbol id="loader" viewBox="0 0 24 24">
      <line x1="12" x2="12" y1="2" y2="6" />
      <line x1="12" x2="12" y1="18" y2="22" />
      <line x1="4.93" x2="7.76" y1="4.93" y2="7.76" />
      <line x1="16.24" x2="19.07" y1="16.24" y2="19.07" />
      <line x1="2" x2="6" y1="12" y2="12" />
      <line x1="18" x2="22" y1="12" y2="12" />
      <line x1="4.93" x2="7.76" y1="19.07" y2="16.24" />
      <line x1="16.24" x2="19.07" y1="7.76" y2="4.93" />
    </symbol>
    <symbol id="log-in" viewBox="0 0 24 24">
      <path d="M15 3h4a2 2 0 0 1 2 2v14a2 2 0 0 1-2 2h-4" />
      <polyline points="10 17 15 12 10 7" />
      <line x1="15" x2="3" y1="12" y2="12" />
    </symbol>
    <symbol id="log-out" viewBox="0 0 24 24">
      <path d="M9 21H5a2 2 0 0 1-2-2V5a2 2 0 0 1 2-2h4" />
      <polyline points="16 17 21 12 16 7" />
      <line x1="21" x2="9" y1="12" y2="12" />
    </symbol>
    <symbol id="merge" viewBox="0 0 24 24">
      <path d="m8 6 4-4 4 4" />
      <path d="M12 2v10.3a4 4 0 0 1-1.172 2.872L4 22" />
      <path d="m20 22-5-5" />
    </symbol>
    <symbol id="minus" viewBox="0 0 24 24">
      <path d="M5 12h14" />
    </symbol>
    <symbol id="moon" viewBox="0 0 24 24">
      <path d="M12 3a6 6 0 0 0 9 9 9 9 0 1 1-9-9Z" />
    </symbol>
    <symbol id="palette" viewBox="0 0 24 24">
      <circle cx="13.5" cy="6.5" r=".5" />
      <circle cx="17.5" cy="10.5" r=".5" />
      <circle cx="8.5" cy="7.5" r=".5" />
      <circle cx="6.5" cy="12.5" r=".5" />
      <path d="M12 2C6.5 2 2 6.5 2 12s4.5 10 10 10c.926 0 1.648-.746 1.648-1.688 0-.437-.18-.835-.437-1.125-.29-.289-.438-.652-.438-1.125a1.64 1.64 0 0 1 1.668-1.668h1.996c3.051 0 5.555-2.503 5.555-5.554C21.965 6.012 17.461 2 12 2z" />
    </symbol>
    <symbol id="pencil" viewBox="0 0 24 24">
      <line x1="18" x2="22" y1="2" y2="6" />
      <path d="M7.5 20.5 19 9l-4-4L3.5 16.5 2 22z" />
    </symbol>
    <symbol id="plus" viewBox="0 0 24 24">
      <line x1="12" x2="12" y1="5" y2="19" />
      <line x1="5" x2="19" y1="12" y2="12" />
    </symbol>
    <symbol id="search" viewBox="0 0 24 24">
      <circle cx="11" cy="11" r="8" />
      <path d="m21 21-4.3-4.3" />
    </symbol>
    <symbol id="share-2" viewBox="0 0 24 24">
      <circle cx="18" cy="5" r="3" /><circle cx="6" cy="12" r="3" />
      <circle cx="18" cy="19" r="3" />
      <line x1="8.59" x2="15.42" y1="13.51" y2="17.49" />
      <line x1="15.41" x2="8.59" y1="6.51" y2="10.49" />
    </symbol>
    <symbol id="shield-alert" viewBox="0 0 24 24">
      <path d="M12 22s8-4 8-10V5l-8-3-8 3v7c0 6 8 10 8 10" />
      <path d="M12 8v4" />
      <path d="M12 16h.01" />
    </symbol>
    <symbol id="shield" viewBox="0 0 24 24">
      <path d="M12 22s8-4 8-10V5l-8-3-8 3v7c0 6 8 10 8 10" />
    </symbol>
    <symbol id="split" viewBox="0 0 24 24">
      <path d="M16 3h5v5" />
      <path d="M8 3H3v5" />
      <path d="M12 22v-8.3a4 4 0 0 0-1.172-2.872L3 3" />
      <path d="m15 9 6-6" />
    </symbol>
    <symbol id="sun" viewBox="0 0 24 24">
      <circle cx="12" cy="12" r="4" />
      <path d="M12 2v2" />
      <path d="M12 20v2" />
      <path d="m4.93 4.93 1.41 1.41" />
      <path d="m17.66 17.66 1.41 1.41" />
      <path d="M2 12h2" />
      <path d="M20 12h2" />
      <path d="m6.34 17.66-1.41 1.41" />
      <path d="m19.07 4.93-1.41 1.41" />
    </symbol>
    <symbol id="tag" viewBox="0 0 24 24">
      <path d="M12 2H2v10l9.29 9.29c.94.94 2.48.94 3.42 0l6.58-6.58c.94-.94.94-2.48 0-3.42L12 2Z" />
      <path d="M7 7h.01" />
    </symbol>
    <symbol id="tags" viewBox="0 0 24 24">
      <path d="M9 5H2v7l6.29 6.29c.94.94 2.48.94 3.42 0l3.58-3.58c.94-.94.94-2.48 0-3.42L9 5Z" />
      <path d="M6 9.01V9" />
      <path d="m15 5 6.3 6.3a2.4 2.4 0 0 1 0 3.4L17 19" />
    </symbol>
    <symbol id="trash" viewBox="0 0 24 24">
      <path d="M3 6h18" />
      <path d="M19 6v14c0 1-1 2-2 2H7c-1 0-2-1-2-2V6" />
      <path d="M8 6V4c0-1 1-2 2-2h4c1 0 2 1 2 2v2" />
    </symbol>
    <symbol id="upload" viewBox="0 0 24 24">
      <path d="M21 15v4a2 2 0 0 1-2 2H5a2 2 0 0 1-2-2v-4" />
      <polyline points="17 8 12 3 7 8" />
      <line x1="12" x2="12" y1="3" y2="15" />
    </symbol>
    <symbol id="user" viewBox="0 0 24 24">
      <path d="M19 21v-2a4 4 0 0 0-4-4H9a4 4 0 0 0-4 4v2" />
      <circle cx="12" cy="7" r="4" />
    </symbol>
    <symbol id="x" viewBox="0 0 24 24">
      <path d="M18 6 6 18" />
      <path d="m6 6 12 12" />
    </symbol>
  </defs>
</svg>
